<?xml version="1.0" ?><svg data-name="Layer 1" id="Layer_1" viewBox="0 0 512 512" xmlns="http://www.w3.org/2000/svg"><path d="M381.52,318.92a5,5,0,0,0-4.35-1.84l-.23,0H301.81a27.53,27.53,0,0,0,5-16V215.92c0-23.49-13.5-44.1-33.59-51.27l-9.62-3.44a134.93,134.93,0,0,0-17.16-4.88,61.15,61.15,0,1,0-56.7,0,134.93,134.93,0,0,0-17.16,4.88L163,164.64c-20.1,7.19-33.6,27.79-33.6,51.64v84.79c0,14.33,10.61,26,24,26a22.14,22.14,0,0,0,13.66-4.79V466a5,5,0,0,0,10,0V302.62c0-.09,0-.19,0-.28,0-.42,0-.84,0-1.27V243.14a5,5,0,0,0-10,0v57.93c0,8.82-6.13,16-14,16-7.53,0-13.66-7.17-13.66-16V215.92c0-19.28,10.84-36.1,27-41.86l9.61-3.43a124.84,124.84,0,0,1,42.14-7.31h.12a125.11,125.11,0,0,1,42,7.3l9.62,3.44c16.13,5.76,27,22.58,27,42.22v84.79c0,8.82-6.12,16-14,16-7.53,0-13.66-7.17-13.66-16V243.14a5,5,0,0,0-10,0v57.93a27.34,27.34,0,0,0,5.05,16H218.11a5,5,0,0,0-5,5V436.74c0,.22,0,.42.06.63V466a5,5,0,0,0,10,0V441.74h36.1V466a5,5,0,0,0,10,0V441.74H376.94a5,5,0,0,0,5-5V324.56A5,5,0,0,0,381.52,318.92ZM167,102.17a51.16,51.16,0,1,1,51.15,51.15A51.22,51.22,0,0,1,167,102.17ZM363.47,327.06l-65.26,52.69L233,327.06ZM223.17,431.74V356.06c0-.21,0-.42-.06-.63V332l72,58.1a5,5,0,0,0,3.14,1.1,5,5,0,0,0,3.14-1.1l70.59-57v98.67Z" style="fill:#231f20"/></svg>